<svg width="155" height="61" viewBox="0 0 155 61" fill="none" xmlns="http://www.w3.org/2000/svg">
<g clip-path="url(#clip0_78_992)">
<path d="M15.0397 50.3067C15.0397 52.8059 15.6645 54.6224 16.9142 55.7558C18.1929 56.8602 20.1256 57.5432 22.7122 57.8048C22.7122 58.2406 22.6976 58.6767 22.6686 59.1125C22.6395 59.5485 22.6249 59.8391 22.6249 59.9844H0.174373L0.13078 58.5894C0.13078 58.1243 0.145311 57.8048 0.174373 57.6303C1.85998 57.2234 3.12418 56.8602 3.96699 56.5405C4.83886 56.2209 5.55089 55.6978 6.10306 54.9712C6.65525 54.2446 6.93134 53.2274 6.93134 51.9197V28.2922C6.58259 27.6236 5.89962 27.0278 4.88245 26.5047C3.86528 25.9526 2.78997 25.5022 1.65654 25.1534C0.552181 24.7756 0 24.6011 0 24.6303L0.13078 23.1481L12.0318 20.1837L14.6909 20.0093L15.1705 27.0715C16.7689 24.9209 18.8032 23.1481 21.2736 21.7531C23.7728 20.3291 26.4611 19.617 29.3383 19.617C33.5523 19.617 36.8217 20.8085 39.1468 23.1917C41.4717 25.5748 42.7359 29.1348 42.9394 33.8721C43.0266 35.7319 43.0703 37.6356 43.0703 39.5827V49.304C43.0703 51.4256 43.2009 52.9658 43.4625 53.925C43.724 54.8839 44.1308 55.5525 44.6832 55.9303C45.2643 56.2789 46.2234 56.6567 47.5604 57.0635L49.3912 57.6303C49.4202 57.8048 49.4348 58.1243 49.4348 58.5894L49.3912 59.9844H27.8997C27.8997 59.8101 27.8851 59.5193 27.8561 59.1125C27.8271 58.6767 27.8125 58.2406 27.8125 57.8048C28.016 57.7175 28.5973 57.5432 29.5562 57.2817C31.0965 56.8456 32.2882 56.3808 33.1309 55.8867C34.0027 55.3926 34.5258 54.5934 34.7003 53.4889C34.8456 52.6463 34.9183 51.5272 34.9183 50.1322V40.411C34.9183 36.5458 34.773 33.5669 34.4822 31.4743C34.2207 29.382 33.4943 27.6672 32.3026 26.3304C31.1401 24.9935 29.2511 24.3251 26.6356 24.3251C24.572 24.3251 22.5813 24.9209 20.6632 26.1123C18.7742 27.304 16.8997 28.8879 15.0397 30.864V50.3067Z" fill="white"/>
<path d="M53.8234 37.0545C53.7944 37.345 53.7797 37.7665 53.7797 38.3188C53.7797 41.9806 54.4337 45.0466 55.7414 47.517C57.0784 49.9581 58.8512 51.7746 61.0598 52.966C63.2977 54.1285 65.7971 54.7098 68.5579 54.7098C72.2197 54.7098 75.7509 53.6636 79.1512 51.571L80.4153 52.7917C79.7178 54.4773 78.5409 55.9305 76.8844 57.151C75.2568 58.3717 73.3968 59.3016 71.3044 59.941C69.2409 60.5513 67.2357 60.8565 65.2884 60.8565C61.6266 60.8565 58.3281 59.9992 55.3929 58.2844C52.4866 56.5699 50.2051 54.1721 48.5486 51.0916C46.9211 48.011 46.1074 44.4798 46.1074 40.4984C46.1074 36.4587 46.9937 32.8551 48.7665 29.6873C50.5393 26.4903 52.8934 24.0201 55.8287 22.2763C58.793 20.5035 61.9607 19.6172 65.332 19.6172C68.093 19.6172 70.5778 20.1839 72.7865 21.3174C75.0243 22.4216 76.8407 23.9911 78.2357 26.0255C79.6307 28.0308 80.517 30.3411 80.8948 32.9568C81.2146 34.2935 81.3745 35.5288 81.3745 36.6622V37.0545H53.8234ZM69.517 34.2645C70.7957 34.2065 71.8711 33.9739 72.7428 33.5671C72.5395 30.1086 71.7256 27.4058 70.3016 25.4587C68.9067 23.5114 66.9159 22.5379 64.3295 22.5379C62.4404 22.5379 60.7547 23.1046 59.2726 24.238C57.8194 25.3715 56.6426 26.8827 55.7414 28.7718C54.8405 30.6319 54.2594 32.6806 53.9979 34.9185L69.517 34.2645Z" fill="white"/>
<path d="M93.2617 49.9133C93.2617 51.2793 93.4069 52.4998 93.6977 53.5752C94.0173 54.6214 94.7583 55.5515 95.921 56.3652C97.0834 57.1788 98.8272 57.6585 101.152 57.8038L101.108 59.9834H78.3963C78.3963 59.7509 78.3819 59.3731 78.3529 58.85C78.3529 58.3269 78.3673 57.9201 78.3963 57.6293L79.8349 57.2371C81.3752 56.8302 82.4796 56.4524 83.148 56.1036C83.8166 55.7548 84.3106 55.1445 84.6302 54.2726C84.979 53.3717 85.1533 52.0059 85.1533 50.1749V28.2475C84.7755 27.6082 84.0781 27.0269 83.0609 26.5038C82.0438 25.9517 80.983 25.5012 79.8785 25.1524C78.8033 24.8036 78.2656 24.6437 78.2656 24.6729L78.3529 23.1471L89.9486 20.0519H92.4334L93.131 28.073C94.7583 25.0798 96.4441 22.9582 98.1876 21.7085C99.9604 20.4588 101.98 19.834 104.247 19.834C105.41 19.834 106.456 20.081 107.386 20.575C108.345 21.0401 109.086 21.6504 109.609 22.4061C110.161 23.1325 110.438 23.8737 110.438 24.6293C110.438 25.1234 110.292 25.7918 110.001 26.6346C109.74 27.4773 109.319 28.2185 108.737 28.8579C108.185 29.4972 107.502 29.8168 106.688 29.8168C105.759 29.8168 105.032 29.6135 104.509 29.2065C103.986 28.7706 103.448 28.1313 102.896 27.2884C102.489 26.649 102.097 26.1696 101.719 25.8498C101.37 25.5302 100.92 25.3703 100.367 25.3703C99.4373 25.3703 98.5947 25.6465 97.839 26.1986C97.1124 26.7217 96.4731 27.3757 95.921 28.1603C95.3687 28.9449 94.7003 29.9911 93.9156 31.2991L93.2617 32.3889V49.9133Z" fill="white"/>
<path d="M138.149 8.76225C137.771 8.18101 137.03 7.59976 135.926 7.01851C134.851 6.43728 133.79 5.94323 132.744 5.53636C131.726 5.12947 131.058 4.88245 130.738 4.79526L130.826 3.2695L143.119 0.305154L146.257 0V51.3093C146.257 53.0531 146.999 54.3028 148.481 55.0584C149.992 55.814 151.605 56.1918 153.32 56.1918V58.5894L141.68 60.5075H138.759L138.367 53.7505C136.304 56.1336 134.139 57.921 131.872 59.1125C129.605 60.2749 127.178 60.8563 124.592 60.8563C121.308 60.8563 118.3 60.0716 115.568 58.5021C112.865 56.9038 110.729 54.6806 109.16 51.8324C107.59 48.9554 106.806 45.6567 106.806 41.9368C106.806 37.6646 107.678 33.8429 109.421 30.4718C111.194 27.1005 113.621 24.4704 116.701 22.5813C119.782 20.6922 123.226 19.7478 127.033 19.7478C128.806 19.7478 130.535 20.0239 132.221 20.576C133.906 21.0991 135.882 21.8983 138.149 22.9737V8.76225ZM138.149 37.7519C138.149 34.9327 137.902 32.666 137.408 30.9512C136.914 29.2074 135.911 27.6672 134.4 26.3304C133.238 25.3133 131.988 24.5284 130.651 23.9763C129.314 23.395 127.963 23.1044 126.597 23.1044C124.301 23.1044 122.267 23.8456 120.494 25.3277C118.721 26.8099 117.341 28.786 116.353 31.2564C115.394 33.6976 114.914 36.3423 114.914 39.1905C114.914 41.9512 115.394 44.5959 116.353 47.1243C117.341 49.6237 118.808 51.6725 120.756 53.271C122.703 54.8695 125.057 55.6685 127.817 55.6685C130.026 55.6685 131.988 55.1891 133.703 54.2301C135.446 53.242 136.929 51.9342 138.149 50.3067V37.7519Z" fill="white"/>
</g>
<defs>
<clipPath id="clip0_78_992">
<rect width="154.209" height="60.8721" fill="white"/>
</clipPath>
</defs>
</svg>
