<svg preserveAspectRatio="none" width="100%" height="100%" overflow="visible" style="display: block;" viewBox="0 0 13.9568 14.1831" fill="none" xmlns="http://www.w3.org/2000/svg">
<g id="Vector" filter="url(#filter0_di_0_17)">
<path d="M10.9357 8.04836H9.4137V5.57194H10.9357C11.4776 5.57194 12.0073 5.40855 12.4578 5.10242C12.9084 4.7963 13.2595 4.36119 13.4669 3.85212C13.6743 3.34305 13.7285 2.78288 13.6228 2.24246C13.5171 1.70203 13.2562 1.20562 12.873 0.815993C12.4899 0.426368 12.0017 0.16103 11.4702 0.0535329C10.9388 -0.0539644 10.3879 0.0012071 9.88732 0.212071C9.3867 0.422934 8.95882 0.780019 8.65778 1.23817C8.35674 1.69632 8.19606 2.23496 8.19606 2.78597V4.33373H5.76078V2.78597C5.76078 2.23496 5.6001 1.69632 5.29905 1.23817C4.99801 0.780019 4.57013 0.422934 4.06952 0.212071C3.5689 0.0012071 3.01804 -0.0539644 2.4866 0.0535329C1.95515 0.16103 1.46698 0.426368 1.08383 0.815993C0.700675 1.20562 0.439745 1.70203 0.334033 2.24246C0.228322 2.78288 0.282577 3.34305 0.489938 3.85212C0.697298 4.36119 1.04845 4.7963 1.49899 5.10242C1.94953 5.40855 2.47922 5.57194 3.02108 5.57194H4.54313V8.04836H3.02108C2.47922 8.04836 1.94953 8.21176 1.49899 8.51788C1.04845 8.82401 0.697298 9.25912 0.489938 9.76819C0.282577 10.2773 0.228322 10.8374 0.334033 11.3778C0.439745 11.9183 0.700675 12.4147 1.08383 12.8043C1.46698 13.1939 1.95515 13.4593 2.4866 13.5668C3.01804 13.6743 3.5689 13.6191 4.06952 13.4082C4.57013 13.1974 4.99801 12.8403 5.29905 12.3821C5.6001 11.924 5.76078 11.3853 5.76078 10.8343V9.28657H8.19606V10.8343C8.19606 11.3853 8.35674 11.924 8.65778 12.3821C8.95882 12.8403 9.3867 13.1974 9.88732 13.4082C10.3879 13.6191 10.9388 13.6743 11.4702 13.5668C12.0017 13.4593 12.4899 13.1939 12.873 12.8043C13.2562 12.4147 13.5171 11.9183 13.6228 11.3778C13.7285 10.8374 13.6743 10.2773 13.4669 9.76819C13.2595 9.25912 12.9084 8.82401 12.4578 8.51788C12.0073 8.21176 11.4776 8.04836 10.9357 8.04836ZM9.4137 2.78597C9.4137 2.47985 9.50296 2.18061 9.67021 1.92608C9.83746 1.67155 10.0752 1.47317 10.3533 1.35603C10.6314 1.23888 10.9374 1.20823 11.2327 1.26795C11.5279 1.32767 11.7991 1.47508 12.012 1.69154C12.2249 1.908 12.3698 2.18378 12.4286 2.48402C12.4873 2.78426 12.4571 3.09546 12.3419 3.37828C12.2267 3.66109 12.0317 3.90282 11.7814 4.07289C11.5311 4.24296 11.2368 4.33373 10.9357 4.33373H9.4137V2.78597ZM1.49903 2.78597C1.49903 2.37548 1.65939 1.9818 1.94483 1.69154C2.23027 1.40128 2.61741 1.23821 3.02108 1.23821C3.42476 1.23821 3.8119 1.40128 4.09734 1.69154C4.38278 1.9818 4.54313 2.37548 4.54313 2.78597V4.33373H3.02108C2.61741 4.33373 2.23027 4.17067 1.94483 3.88041C1.65939 3.59014 1.49903 3.19646 1.49903 2.78597ZM4.54313 10.8343C4.54313 11.1405 4.45387 11.4397 4.28662 11.6942C4.11938 11.9488 3.88167 12.1471 3.60355 12.2643C3.32543 12.3814 3.01939 12.4121 2.72415 12.3524C2.4289 12.2926 2.15769 12.1452 1.94483 11.9288C1.73197 11.7123 1.58701 11.4365 1.52828 11.1363C1.46955 10.8361 1.49969 10.5248 1.61489 10.242C1.73009 9.95921 1.92518 9.71749 2.17548 9.54742C2.42578 9.37735 2.72005 9.28657 3.02108 9.28657H4.54313V10.8343ZM5.76078 5.57194H8.19606V8.04836H5.76078V5.57194ZM10.9357 12.3821C10.5321 12.3821 10.1449 12.219 9.8595 11.9288C9.57406 11.6385 9.4137 11.2448 9.4137 10.8343V9.28657H10.9357C11.3394 9.28657 11.7266 9.44964 12.012 9.7399C12.2974 10.0302 12.4578 10.4238 12.4578 10.8343C12.4578 11.2448 12.2974 11.6385 12.012 11.9288C11.7266 12.219 11.3394 12.3821 10.9357 12.3821Z" fill="var(--fill-0, #D8D8D8)"/>
</g>
<defs>
<filter id="filter0_di_0_17" x="-4.95243e-10" y="0" width="13.9568" height="14.1831" filterUnits="userSpaceOnUse" color-interpolation-filters="sRGB">
<feFlood flood-opacity="0" result="BackgroundImageFix"/>
<feColorMatrix in="SourceAlpha" type="matrix" values="0 0 0 0 0 0 0 0 0 0 0 0 0 0 0 0 0 0 127 0" result="hardAlpha"/>
<feOffset dy="0.28139"/>
<feGaussianBlur stdDeviation="0.140695"/>
<feComposite in2="hardAlpha" operator="out"/>
<feColorMatrix type="matrix" values="0 0 0 0 0 0 0 0 0 0 0 0 0 0 0 0 0 0 0.1 0"/>
<feBlend mode="normal" in2="BackgroundImageFix" result="effect1_dropShadow_0_17"/>
<feBlend mode="normal" in="SourceGraphic" in2="effect1_dropShadow_0_17" result="shape"/>
<feColorMatrix in="SourceAlpha" type="matrix" values="0 0 0 0 0 0 0 0 0 0 0 0 0 0 0 0 0 0 127 0" result="hardAlpha"/>
<feOffset dy="0.28139"/>
<feComposite in2="hardAlpha" operator="arithmetic" k2="-1" k3="1"/>
<feColorMatrix type="matrix" values="0 0 0 0 1 0 0 0 0 1 0 0 0 0 1 0 0 0 0.55 0"/>
<feBlend mode="normal" in2="shape" result="effect2_innerShadow_0_17"/>
</filter>
</defs>
</svg>
